<svg width="29" height="25" viewBox="0 0 29 25" fill="none" xmlns="http://www.w3.org/2000/svg">
<g clip-path="url(#clip0)">
<path d="M12.6376 24.9757L9.8735 24.1115C9.5835 24.0236 9.42038 23.6964 9.50194 23.3839L15.6871 0.424943C15.7687 0.112443 16.0723 -0.0633386 16.3623 0.024552L19.1263 0.88881C19.4163 0.976701 19.5794 1.30385 19.4979 1.61635L13.3127 24.5753C13.2266 24.8878 12.9276 25.0685 12.6376 24.9757V24.9757ZM7.47194 19.4972L9.44303 17.2316C9.65147 16.9923 9.63788 16.6115 9.40679 16.3917L5.30147 12.5001L9.40679 8.60854C9.63788 8.38881 9.656 8.00795 9.44303 7.76869L7.47194 5.50307C7.26804 5.26869 6.92366 5.25404 6.70163 5.47865L0.1721 12.0705C-0.0589941 12.2999 -0.0589941 12.6955 0.1721 12.9249L6.70163 19.5216C6.92366 19.7462 7.26804 19.7365 7.47194 19.4972V19.4972ZM22.2982 19.5265L28.8277 12.9298C29.0588 12.7003 29.0588 12.3048 28.8277 12.0753L22.2982 5.47377C22.0807 5.25404 21.7363 5.26381 21.5279 5.49818L19.5568 7.76381C19.3483 8.00307 19.3619 8.38393 19.593 8.60365L23.6983 12.5001L19.593 16.3917C19.3619 16.6115 19.3438 16.9923 19.5568 17.2316L21.5279 19.4972C21.7318 19.7365 22.0762 19.7462 22.2982 19.5265V19.5265Z" fill="url(#paint0_linear)"/>
</g>
<defs>
<linearGradient id="paint0_linear" x1="14.4999" y1="0.00195312" x2="14.4999" y2="25.0001" gradientUnits="userSpaceOnUse">
<stop stop-color="#FF8A00"/>
<stop offset="1" stop-color="#9E00FF"/>
</linearGradient>
<clipPath id="clip0">
<rect width="29" height="25" fill="white"/>
</clipPath>
</defs>
</svg>
