<svg width="104" height="138" viewBox="0 0 104 138" fill="none" xmlns="http://www.w3.org/2000/svg">
<path d="M75.0208 46.009C81.1515 46.009 87.031 43.5853 91.366 39.2711C95.701 34.9569 98.1364 29.1057 98.1364 23.0045C98.1364 16.9033 95.701 11.052 91.366 6.73786C87.031 2.42368 81.1515 0 75.0208 0L28.7896 0C22.6625 0 16.7864 2.42226 12.4539 6.73391C8.12145 11.0456 5.68749 16.8934 5.68749 22.991C5.68749 29.0886 8.12145 34.9365 12.4539 39.2481C16.7864 43.5598 22.6625 45.982 28.7896 45.982C22.6589 45.982 16.7794 48.4057 12.4444 52.7199C8.10934 57.0341 5.67395 62.8854 5.67395 68.9865C5.67395 75.0877 8.10934 80.939 12.4444 85.2532C16.7794 89.5673 22.6589 91.991 28.7896 91.991C24.2177 91.9883 19.7478 93.3349 15.9449 95.8605C12.1421 98.386 9.17721 101.977 7.42517 106.18C5.67313 110.382 5.21264 115.007 6.10193 119.47C6.99123 123.933 9.19036 128.033 12.4212 131.253C15.6521 134.472 19.7696 136.665 24.2531 137.555C28.7366 138.446 33.3846 137.993 37.6095 136.254C41.8343 134.515 45.4462 131.569 47.9884 127.787C50.5306 124.006 51.889 119.559 51.8917 115.009V46.009H75.0208ZM75.0208 46.009C70.4517 46.009 65.9851 47.3574 62.186 49.8837C58.3869 52.41 55.4258 56.0007 53.6773 60.2017C51.9287 64.4028 51.4712 69.0255 52.3626 73.4853C53.254 77.9451 55.4543 82.0418 58.6852 85.2571C61.9161 88.4725 66.0325 90.6621 70.5138 91.5492C74.9952 92.4364 79.6402 91.9811 83.8616 90.2409C88.0829 88.5008 91.691 85.554 94.2295 81.7731C96.768 77.9923 98.1229 73.5472 98.1229 69C98.1222 62.9026 95.688 57.0552 91.3557 52.7437C87.0233 48.4322 81.1476 46.0097 75.0208 46.009Z" fill="url(#paint0_linear)"/>
<defs>
<linearGradient id="paint0_linear" x1="51.8984" y1="0" x2="51.8984" y2="138" gradientUnits="userSpaceOnUse">
<stop stop-color="#AE2C9A"/>
<stop offset="1" stop-color="#9E00FF"/>
</linearGradient>
</defs>
</svg>
