<svg width="28" height="27" viewBox="0 0 28 27" fill="none" xmlns="http://www.w3.org/2000/svg">
<g clip-path="url(#clip0)">
<path d="M23.625 16.875H21.875C21.6429 16.875 21.4204 16.9639 21.2563 17.1221C21.0922 17.2804 21 17.495 21 17.7188V23.625H3.5V6.75H11.375C11.6071 6.75 11.8296 6.66111 11.9937 6.50287C12.1578 6.34464 12.25 6.13003 12.25 5.90625V4.21875C12.25 3.99497 12.1578 3.78036 11.9937 3.62213C11.8296 3.46389 11.6071 3.375 11.375 3.375H2.625C1.92881 3.375 1.26113 3.64168 0.768845 4.11639C0.276562 4.59109 0 5.23492 0 5.90625L0 24.4688C0 25.1401 0.276562 25.7839 0.768845 26.2586C1.26113 26.7333 1.92881 27 2.625 27H21.875C22.5712 27 23.2389 26.7333 23.7312 26.2586C24.2234 25.7839 24.5 25.1401 24.5 24.4688V17.7188C24.5 17.495 24.4078 17.2804 24.2437 17.1221C24.0796 16.9639 23.8571 16.875 23.625 16.875ZM26.6875 0H19.6875C18.5188 0 17.9348 1.36635 18.7578 2.16211L20.7118 4.04631L7.38281 16.8945C7.26045 17.0121 7.16337 17.1518 7.09712 17.3056C7.03088 17.4595 6.99678 17.6244 6.99678 17.791C6.99678 17.9576 7.03088 18.1225 7.09712 18.2763C7.16337 18.4302 7.26045 18.5699 7.38281 18.6875L8.62258 19.8809C8.74451 19.9988 8.8894 20.0925 9.04894 20.1563C9.20848 20.2202 9.37952 20.2531 9.55227 20.2531C9.72501 20.2531 9.89605 20.2202 10.0556 20.1563C10.2151 20.0925 10.36 19.9988 10.482 19.8809L23.8044 7.03055L25.7578 8.91211C26.5781 9.70312 28 9.14941 28 8.01562V1.26562C28 0.92996 27.8617 0.608044 27.6156 0.370693C27.3694 0.133342 27.0356 0 26.6875 0V0Z" fill="url(#paint0_linear)"/>
</g>
<defs>
<linearGradient id="paint0_linear" x1="14" y1="0" x2="14" y2="27" gradientUnits="userSpaceOnUse">
<stop stop-color="#FFA800"/>
<stop offset="1" stop-color="#9E00FF"/>
</linearGradient>
<clipPath id="clip0">
<rect width="28" height="27" fill="white"/>
</clipPath>
</defs>
</svg>
