<svg width="119" height="136" viewBox="0 0 119 136" fill="none" xmlns="http://www.w3.org/2000/svg">
<path d="M59.5 134.937C57.7203 134.937 55.914 134.459 54.3469 133.556L37.9578 123.861C35.514 122.48 36.7094 122.001 37.5062 121.736C40.7734 120.594 41.4375 120.355 44.9172 118.362C45.289 118.15 45.7672 118.23 46.139 118.469L58.7297 125.933C59.1812 126.198 59.8187 126.198 60.2437 125.933L109.305 97.6171C109.756 97.3515 110.048 96.8202 110.048 96.289V39.6577C110.048 39.0999 109.756 38.5952 109.278 38.303L60.2437 10.014C59.7922 9.74834 59.1812 9.74834 58.7297 10.014L9.72185 38.3296C9.24372 38.5952 8.95154 39.1265 8.95154 39.6843V96.289C8.95154 96.8202 9.24372 97.3515 9.72185 97.5905L23.1625 105.347C30.4672 108.986 34.9297 104.709 34.9297 100.38V44.4921C34.9297 43.6952 35.5672 43.0843 36.364 43.0843H42.5797C43.35 43.0843 44.014 43.6952 44.014 44.4921V100.406C44.014 110.128 38.7015 115.706 29.4844 115.706C26.6422 115.706 24.4109 115.706 18.1953 112.625L5.33904 105.214C2.15154 103.381 0.185913 99.9546 0.185913 96.2624V39.6577C0.185913 35.9921 2.15154 32.539 5.33904 30.7062L54.3469 2.39053C57.4547 0.637402 61.5718 0.637402 64.6531 2.39053L113.714 30.7327C116.902 32.5655 118.867 35.9921 118.867 39.6843V96.289C118.867 99.9546 116.902 103.381 113.714 105.241L64.6531 133.556C63.0859 134.459 61.3062 134.937 59.5 134.937ZM99.1047 79.1296C99.1047 68.5312 91.9328 65.7155 76.8718 63.7233C61.625 61.7046 60.0844 60.6687 60.0844 57.1093C60.0844 54.1608 61.3859 50.2296 72.675 50.2296C82.7422 50.2296 86.4609 52.4077 88.0015 59.2077C88.1343 59.8452 88.7187 60.3233 89.3828 60.3233H95.7578C96.1562 60.3233 96.5281 60.164 96.7937 59.8718C97.0593 59.5796 97.1922 59.1812 97.1656 58.7827C96.1828 47.0687 88.4 41.6233 72.675 41.6233C58.6765 41.6233 50.3359 47.5202 50.3359 57.428C50.3359 68.1593 58.65 71.1343 72.064 72.4624C88.1343 74.0296 89.3828 76.3937 89.3828 79.5546C89.3828 85.0265 84.9734 87.364 74.6406 87.364C61.6515 87.364 58.8094 84.0968 57.8531 77.6421C57.7469 76.9515 57.1625 76.4468 56.4453 76.4468H50.0969C49.3 76.4468 48.689 77.0843 48.689 77.8546C48.689 86.1155 53.1781 95.9702 74.6672 95.9702C90.1797 95.9436 99.1047 89.8077 99.1047 79.1296Z" fill="url(#paint0_linear)"/>
<defs>
<linearGradient id="paint0_linear" x1="59.5265" y1="1.07568" x2="59.5265" y2="134.937" gradientUnits="userSpaceOnUse">
<stop stop-color="#C95253"/>
<stop offset="1" stop-color="#AE2C9A"/>
</linearGradient>
</defs>
</svg>
