<svg width="132" height="132" viewBox="0 0 132 132" fill="none" xmlns="http://www.w3.org/2000/svg">
<g id="react-brands 1">
<path id="Vector" d="M107.817 45.6843C106.425 45.2203 105.033 44.782 103.641 44.3695C103.873 43.4156 104.079 42.4617 104.285 41.5078C107.456 26.1421 105.368 13.7929 98.3297 9.71948C91.5492 5.82651 80.4891 9.87417 69.3 19.6195C68.1914 20.5734 67.1086 21.5789 66.0773 22.5843C65.3812 21.914 64.6594 21.2437 63.9375 20.5992C52.207 10.1835 40.4508 5.80073 33.4125 9.89995C26.6578 13.8187 24.6469 25.446 27.4828 39.9867C27.7664 41.4304 28.0758 42.8484 28.4367 44.2921C26.7867 44.7562 25.1625 45.2718 23.6414 45.8132C9.87422 50.5828 0 58.1109 0 65.8968C0 73.9406 10.5188 82.0101 24.8273 86.9085C25.9875 87.2953 27.1477 87.682 28.3336 88.0171C27.9469 89.564 27.6117 91.0851 27.3023 92.6578C24.5953 106.966 26.7094 118.31 33.4641 122.203C40.425 126.225 52.1297 122.1 63.525 112.123C64.4273 111.323 65.3297 110.498 66.232 109.622C67.3664 110.73 68.5523 111.787 69.7383 112.819C80.7727 122.306 91.6781 126.148 98.407 122.255C105.368 118.233 107.637 106.038 104.698 91.1882C104.466 90.0539 104.208 88.8937 103.924 87.7078C104.749 87.4757 105.548 87.2179 106.348 86.9601C121.223 82.0359 132 74.0695 132 65.8968C132 58.0851 121.842 50.5054 107.817 45.6843ZM72.9352 23.796C82.5258 15.4429 91.4719 12.1687 95.5453 14.5148C99.9023 17.0156 101.578 27.1218 98.8453 40.3992C98.6648 41.2757 98.4844 42.1265 98.2523 42.9773C92.5289 41.6882 86.7281 40.7601 80.9016 40.2445C77.55 35.4492 73.8891 30.8601 69.9188 26.5546C70.9242 25.6007 71.9039 24.6984 72.9352 23.796ZM43.1063 79.2773C44.4211 81.5203 45.7617 83.7632 47.1797 85.9546C43.1578 85.5163 39.1617 84.8718 35.2172 84.021C36.3516 80.3085 37.7695 76.4671 39.4195 72.5484C40.6055 74.8171 41.8172 77.0601 43.1063 79.2773ZM35.2945 48.2624C39.007 47.4374 42.9516 46.7671 47.0508 46.2515C45.6844 48.3914 44.3438 50.5828 43.0805 52.7999C41.8172 54.9914 40.5797 57.2343 39.4195 59.5031C37.7953 55.6617 36.4289 51.8976 35.2945 48.2624ZM42.3586 66.0257C44.0602 62.4679 45.9164 58.9874 47.8758 55.5585C49.8352 52.1296 51.9492 48.8039 54.1664 45.5296C58.0336 45.246 61.9781 45.0914 66 45.0914C70.0219 45.0914 73.9922 45.246 77.8336 45.5296C80.025 48.7781 82.1133 52.1039 84.0984 55.507C86.0836 58.9101 87.9398 62.3906 89.693 65.9226C87.9656 69.4804 86.1094 72.9867 84.1242 76.4414C82.1648 79.8703 80.0766 83.196 77.8852 86.496C74.0438 86.7796 70.0477 86.9085 66 86.9085C61.9523 86.9085 58.0336 86.7796 54.2437 86.5476C52.0008 83.2734 49.8867 79.9218 47.9016 76.4929C45.9164 73.064 44.0859 69.5835 42.3586 66.0257ZM88.9195 79.2257C90.2344 76.957 91.4719 74.6625 92.6836 72.3421C94.3336 76.0804 95.7773 79.8703 97.0406 83.7632C93.0445 84.6656 88.9969 85.3617 84.9234 85.8257C86.3156 83.6601 87.6305 81.4429 88.9195 79.2257ZM92.632 59.5031C91.4203 57.2343 90.1828 54.9656 88.8937 52.7484C87.6305 50.557 86.3156 48.3914 84.9492 46.2515C89.1 46.7671 93.0703 47.4632 96.7828 48.314C95.5969 52.1296 94.2047 55.8421 92.632 59.5031ZM66.0516 30.4992C68.7586 33.4382 71.3109 36.532 73.6828 39.7289C68.5781 39.4968 63.4477 39.4968 58.343 39.7289C60.8695 36.4031 63.4734 33.3093 66.0516 30.4992ZM36.1453 14.6953C40.4766 12.1687 50.093 15.7781 60.225 24.75C60.8695 25.3171 61.5141 25.9359 62.1844 26.5546C58.1883 30.8601 54.5016 35.4492 51.1242 40.2445C45.2977 40.7601 39.5227 41.6624 33.7992 42.9257C33.4641 41.6109 33.1805 40.2703 32.8969 38.9296C30.4734 26.4515 32.0719 17.0414 36.1453 14.6953ZM29.8289 82.6546C28.7461 82.3453 27.6891 82.0101 26.632 81.6492C21.1406 79.9218 14.9016 77.189 10.3898 73.6054C7.78594 71.8007 6.03281 69.0164 5.54297 65.8968C5.54297 61.1789 13.6898 55.146 25.4461 51.0468C26.9156 50.5312 28.4109 50.0671 29.9062 49.6289C31.6594 55.2234 33.7734 60.7148 36.2227 66.0257C33.7477 71.414 31.6078 76.9828 29.8289 82.6546ZM59.8898 107.92C55.6359 111.813 50.7117 114.907 45.3492 117.021C42.4875 118.387 39.1875 118.516 36.2484 117.356C32.1492 114.984 30.4477 105.884 32.768 93.6375C33.0516 92.1937 33.3609 90.7499 33.7219 89.332C39.4969 90.5695 45.3234 91.4203 51.2273 91.8585C54.6305 96.6796 58.3687 101.294 62.3648 105.626C61.5398 106.425 60.7148 107.198 59.8898 107.92ZM66.2062 101.655C63.5766 98.8195 60.9469 95.6742 58.3945 92.2968C60.8695 92.3999 63.4219 92.4515 66 92.4515C68.6555 92.4515 71.2594 92.3999 73.8375 92.271C71.4656 95.5453 68.9133 98.6648 66.2062 101.655ZM99.9023 109.39C99.6703 112.535 98.1234 115.474 95.6484 117.459C91.5492 119.831 82.8094 116.737 73.3734 108.642C72.2906 107.714 71.2078 106.709 70.0992 105.677C74.0437 101.32 77.6789 96.7054 80.9789 91.8585C86.8828 91.3687 92.7609 90.4664 98.5617 89.1515C98.8195 90.2085 99.0516 91.2656 99.2578 92.2968C100.521 97.8656 100.727 103.666 99.9023 109.39ZM104.595 81.6749C103.873 81.907 103.151 82.139 102.403 82.3453C100.598 76.7249 98.3813 71.2335 95.8289 65.8968C98.3039 60.6375 100.392 55.2234 102.145 49.6804C103.486 50.0671 104.775 50.4796 106.013 50.8921C118.027 55.0171 126.457 61.1531 126.457 65.8453C126.457 70.8984 117.459 77.421 104.595 81.6749ZM66 77.8078C72.5227 77.8078 77.8078 72.5226 77.8078 65.9999C77.8078 59.4773 72.5227 54.1921 66 54.1921C59.4773 54.1921 54.1922 59.4773 54.1922 65.9999C54.1922 72.5226 59.4773 77.8078 66 77.8078Z" fill="url(#paint0_linear)"/>
</g>
<defs>
<linearGradient id="paint0_linear" x1="66" y1="8.25317" x2="66" y2="123.759" gradientUnits="userSpaceOnUse">
<stop stop-color="#FF8A00"/>
<stop offset="1" stop-color="#CC4F87"/>
</linearGradient>
</defs>
</svg>
